<svg width="217" height="56" viewBox="0 0 217 56" fill="none" xmlns="http://www.w3.org/2000/svg">
<g clip-path="url(#clip0_49935_922)">
<path fill-rule="evenodd" clip-rule="evenodd" d="M194.15 15.21C194.905 15.1324 195.62 14.8311 196.202 14.3447C196.785 13.8583 197.209 13.209 197.42 12.48L197.57 11.86C196.947 12.2281 196.233 12.4119 195.51 12.39C194.31 12.39 193.07 12.77 192.77 13.82C192.47 14.87 193.15 15.21 194.15 15.21ZM201.39 12.14L200.69 14.75L199.89 17.75H196.58C196.51 17.2592 196.51 16.7608 196.58 16.27C195.269 17.4402 193.557 18.0598 191.8 18C189.13 18 188.09 16.3 188.75 14C189.51 11.22 192.42 9.88 196.53 9.88C197.53 9.88 198.16 9.68 198.35 8.96C198.61 7.96 197.97 7.53 196.71 7.53C196.141 7.52982 195.588 7.7199 195.14 8.07C194.697 8.42286 194.381 8.91096 194.24 9.46H190.31C191.13 6.46 194.25 4.51 197.63 4.51C201.01 4.51 203 6.31 202.2 9.09L201.39 12.14ZM169.81 12.44C169.598 13.1683 169.173 13.8169 168.591 14.3031C168.008 14.7893 167.295 15.0911 166.54 15.17C165.54 15.17 164.89 14.76 165.16 13.78C165.43 12.8 166.7 12.34 167.9 12.34C168.623 12.37 169.338 12.1894 169.96 11.82L169.81 12.44ZM173.08 14.75L174 11.34L174.6 9.09C175.35 6.31 173.51 4.54 170.03 4.54C166.55 4.54 163.54 6.54 162.72 9.54H166.65C166.786 8.99003 167.102 8.50133 167.548 8.15162C167.994 7.80191 168.543 7.61126 169.11 7.61C170.37 7.61 171.01 8.07 170.75 9.04C170.56 9.76 169.93 9.96 168.93 9.96C164.82 9.96 161.93 11.3 161.16 14.08C160.49 16.39 161.53 18.08 164.16 18.08C165.953 18.1198 167.691 17.4557 169 16.23C168.92 16.7201 168.92 17.2199 169 17.71H172.3L173.08 14.75ZM153.58 18C149.82 18 147.7 16.06 148.52 13H152.39C152.03 14.39 153.09 14.67 154.18 14.67C155.27 14.67 156.07 14.46 156.26 13.75C156.39 13.22 155.35 12.93 154.15 12.6C153.74 12.49 153.32 12.38 152.92 12.25C150.99 11.55 149.44 10.79 150.2 8.25C150.96 5.71 153.68 4.4 156.72 4.4C160.29 4.4 161.62 6.62 160.89 9.4H157.21C157.58 8.63 157.21 7.84 156.03 7.79C154.85 7.74 154.11 7.93 153.93 8.61C153.75 9.29 155.26 9.75 156.93 10.14C158.84 10.57 160.61 11.62 159.93 14.14C159.14 17 156.89 18 153.58 18ZM184.39 11.25C184.95 9.18 184.31 7.89 182.67 7.89C181.03 7.89 179.67 9.18 179.16 11.25C178.65 13.32 179.21 14.63 180.88 14.63C182.55 14.63 183.88 13.34 184.41 11.25H184.39ZM188.27 11.25C187.42 14.44 184.78 18 180.57 18C179.24 18 177.96 17.35 177.75 16.28L177.38 17.67H173.5L178.22 0H182.11L180.43 6.34C180.893 5.78842 181.467 5.34106 182.115 5.02737C182.763 4.71369 183.47 4.54077 184.19 4.52C188.38 4.52 189.11 8.11 188.27 11.28V11.25ZM205.83 0L201.11 17.69H204.99L206.78 11C206.928 10.1552 207.365 9.38817 208.016 8.83C208.668 8.27184 209.493 7.95724 210.35 7.94C211.9 7.94 212.12 9.08 211.53 11.09L209.77 17.73H213.66L215.6 10.46C216.43 7.34 216.36 4.56 212.25 4.56C210.694 4.64968 209.214 5.26288 208.05 6.3L209.72 0H205.83Z" fill="#D51317"/>
<path d="M48 55.13L54.83 31.1H64.92L58.09 55.13H48Z" fill="white"/>
<path d="M64 55.13L72.89 21.76H83L82 25.37C83.78 23.13 89.59 20.83 92.94 20.83C103.64 20.83 103.82 28.05 101.65 36.2L96.58 55.13H86.51L91.11 37.88C92.63 32.65 92.11 29.67 88.03 29.67C84.32 29.67 80.26 31.91 78.73 37.67L74.07 55.13H64Z" fill="white"/>
<path d="M125.36 41.5L125.78 39.88C124.159 40.8441 122.295 41.3231 120.41 41.26C117.31 41.26 114.07 42.26 113.28 45C112.54 47.55 114.28 48.61 116.84 48.61C121.25 48.61 124.62 44.29 125.37 41.5H125.36ZM102.81 45.5C104.81 38.28 112.35 34.79 123.06 34.79C125.66 34.79 127.29 34.23 127.79 32.37C128.47 29.82 126.79 28.63 123.53 28.63C120.53 28.63 117.93 30.13 117.11 33.17H106.9C109.04 25.39 117.13 20.79 125.9 20.79C134.9 20.79 139.73 25.33 137.8 32.61L133.86 47.37C133.161 49.8802 132.967 52.5043 133.29 55.09H123.19C122.99 53.8111 122.99 52.5089 123.19 51.23C119.816 54.3677 115.357 56.0772 110.75 56C103.8 56 101.07 51.58 102.81 45.54V45.5Z" fill="white"/>
<path d="M137.21 55.13L146.1 21.76H156.2L155.2 25.37C156.98 23.13 162.79 20.83 166.14 20.83C176.84 20.83 177.02 28.05 174.85 36.2L169.79 55.13H159.75L164.35 37.88C165.86 32.65 165.35 29.67 161.28 29.67C157.56 29.67 153.49 31.91 151.97 37.67L147.31 55.16L137.21 55.13Z" fill="white"/>
<path d="M189.54 56C179.76 56 174.23 51 176.32 43.12H186.41C185.41 46.72 188.22 47.47 191.07 47.47C194.15 47.53 195.99 46.91 196.47 45.1C196.95 43.29 191.95 42.56 187.79 41.19C182.79 39.38 178.71 37.39 180.71 30.85C182.71 24.13 189.71 20.85 197.71 20.85C206.99 20.85 210.47 26.64 208.58 33.73H199C200 31.73 199.08 29.73 195.9 29.57C192.72 29.41 190.9 29.94 190.44 31.68C189.98 33.42 193.92 34.68 198.24 35.68C203.24 36.8 207.8 39.54 206.06 46.01C204.06 53.32 198.22 56 189.54 56Z" fill="white"/>
<path d="M43.32 31.86L37.36 26.64L0 40.99L37.69 21.48L43.45 27.15L58.58 19.87L55.49 16.77L68.29 17.92L60.99 28.47L60.48 23.61L43.32 31.86Z" fill="#D51317"/>
<path d="M45.91 8.80998C40.85 8.80998 37.27 11.74 35.83 17.14L34.66 21.5L37.88 19.7L43.78 25.22L44.7 21.75L45.3 19.51C45.3849 18.9862 45.6484 18.5079 46.0457 18.1561C46.443 17.8044 46.9497 17.6008 47.48 17.58H53.67L56 8.78998L45.91 8.80998Z" fill="white"/>
<path d="M37.06 28.17L32.48 29.75L32.27 30.54L25.71 55.13H35.8L41.87 32.36L37.06 28.17Z" fill="white"/>
</g>
<defs>
<clipPath id="clip0_49935_922">
<rect width="217" height="56" fill="white"/>
</clipPath>
</defs>
</svg>
